<mxfile host="65bd71144e">
    <diagram id="5Azdt-kpQbe8rz1hT9fV" name="Page-1">
        <mxGraphModel dx="1067" dy="787" grid="1" gridSize="10" guides="1" tooltips="1" connect="1" arrows="1" fold="1" page="1" pageScale="1" pageWidth="850" pageHeight="1100" math="0" shadow="0">
            <root>
                <mxCell id="0"/>
                <mxCell id="1" parent="0"/>
                <mxCell id="2" value="visitante" style="shape=umlActor;verticalLabelPosition=bottom;verticalAlign=top;html=1;outlineConnect=0;" parent="1" vertex="1">
                    <mxGeometry x="90" y="170" width="30" height="60" as="geometry"/>
                </mxCell>
                <mxCell id="3" value="usuario" style="shape=umlActor;verticalLabelPosition=bottom;verticalAlign=top;html=1;outlineConnect=0;" parent="1" vertex="1">
                    <mxGeometry x="610" y="180" width="30" height="60" as="geometry"/>
                </mxCell>
                <mxCell id="4" value="administrador" style="shape=umlActor;verticalLabelPosition=bottom;verticalAlign=top;html=1;outlineConnect=0;" parent="1" vertex="1">
                    <mxGeometry x="610" y="350" width="30" height="60" as="geometry"/>
                </mxCell>
                <mxCell id="6" value="Blog Maiz" style="swimlane;whiteSpace=wrap;html=1;" parent="1" vertex="1">
                    <mxGeometry x="210" y="70" width="360" height="630" as="geometry"/>
                </mxCell>
                <mxCell id="7" value="visualizar blogs" style="ellipse;whiteSpace=wrap;html=1;" parent="6" vertex="1">
                    <mxGeometry x="30" y="70" width="110" height="60" as="geometry"/>
                </mxCell>
                <mxCell id="8" value="comentar" style="ellipse;whiteSpace=wrap;html=1;" parent="6" vertex="1">
                    <mxGeometry x="160" y="310" width="110" height="60" as="geometry"/>
                </mxCell>
                <mxCell id="10" value="ver comentarios" style="ellipse;whiteSpace=wrap;html=1;" parent="6" vertex="1">
                    <mxGeometry x="20" y="245" width="110" height="60" as="geometry"/>
                </mxCell>
                <mxCell id="11" value="sing-up" style="ellipse;whiteSpace=wrap;html=1;" parent="6" vertex="1">
                    <mxGeometry x="20" y="170" width="110" height="60" as="geometry"/>
                </mxCell>
                <mxCell id="12" value="login" style="ellipse;whiteSpace=wrap;html=1;" parent="6" vertex="1">
                    <mxGeometry x="160" y="130" width="110" height="60" as="geometry"/>
                </mxCell>
                <mxCell id="26" value="ver sugerencias" style="ellipse;whiteSpace=wrap;html=1;" parent="6" vertex="1">
                    <mxGeometry x="160" y="390" width="110" height="60" as="geometry"/>
                </mxCell>
                <mxCell id="9" value="plantear sugerencias" style="ellipse;whiteSpace=wrap;html=1;" parent="6" vertex="1">
                    <mxGeometry x="215" y="40" width="110" height="60" as="geometry"/>
                </mxCell>
                <mxCell id="29" value="registrar administrador" style="ellipse;whiteSpace=wrap;html=1;" parent="6" vertex="1">
                    <mxGeometry x="160" y="470" width="110" height="60" as="geometry"/>
                </mxCell>
                <mxCell id="31" value="modificar&amp;nbsp;&lt;br&gt;contenido de&amp;nbsp;&lt;br&gt;tema" style="ellipse;whiteSpace=wrap;html=1;" vertex="1" parent="6">
                    <mxGeometry x="160" y="550" width="110" height="60" as="geometry"/>
                </mxCell>
                <mxCell id="13" value="" style="endArrow=none;html=1;exitX=1;exitY=0.5;exitDx=0;exitDy=0;entryX=0;entryY=0.3333333333333333;entryDx=0;entryDy=0;entryPerimeter=0;" parent="1" source="7" target="3" edge="1">
                    <mxGeometry width="50" height="50" relative="1" as="geometry">
                        <mxPoint x="530" y="420" as="sourcePoint"/>
                        <mxPoint x="580" y="370" as="targetPoint"/>
                    </mxGeometry>
                </mxCell>
                <mxCell id="14" value="" style="endArrow=none;html=1;exitX=0.5;exitY=0;exitDx=0;exitDy=0;entryX=0;entryY=1;entryDx=0;entryDy=0;entryPerimeter=0;" parent="1" source="8" target="3" edge="1">
                    <mxGeometry width="50" height="50" relative="1" as="geometry">
                        <mxPoint x="530" y="420" as="sourcePoint"/>
                        <mxPoint x="580" y="370" as="targetPoint"/>
                    </mxGeometry>
                </mxCell>
                <mxCell id="15" value="" style="endArrow=none;html=1;exitX=1;exitY=0.5;exitDx=0;exitDy=0;entryX=0;entryY=0.3333333333333333;entryDx=0;entryDy=0;entryPerimeter=0;" parent="1" source="12" target="3" edge="1">
                    <mxGeometry width="50" height="50" relative="1" as="geometry">
                        <mxPoint x="530" y="420" as="sourcePoint"/>
                        <mxPoint x="580" y="370" as="targetPoint"/>
                    </mxGeometry>
                </mxCell>
                <mxCell id="16" value="" style="endArrow=none;html=1;exitX=1;exitY=0.5;exitDx=0;exitDy=0;entryX=0;entryY=0.3333333333333333;entryDx=0;entryDy=0;entryPerimeter=0;" parent="1" source="8" target="4" edge="1">
                    <mxGeometry width="50" height="50" relative="1" as="geometry">
                        <mxPoint x="530" y="420" as="sourcePoint"/>
                        <mxPoint x="580" y="370" as="targetPoint"/>
                    </mxGeometry>
                </mxCell>
                <mxCell id="18" value="" style="endArrow=none;html=1;exitX=1;exitY=0.5;exitDx=0;exitDy=0;" parent="1" source="9" edge="1">
                    <mxGeometry width="50" height="50" relative="1" as="geometry">
                        <mxPoint x="530" y="420" as="sourcePoint"/>
                        <mxPoint x="610" y="200" as="targetPoint"/>
                    </mxGeometry>
                </mxCell>
                <mxCell id="20" value="" style="endArrow=none;html=1;exitX=1;exitY=0.3333333333333333;exitDx=0;exitDy=0;exitPerimeter=0;entryX=0;entryY=0.5;entryDx=0;entryDy=0;" parent="1" source="2" target="7" edge="1">
                    <mxGeometry width="50" height="50" relative="1" as="geometry">
                        <mxPoint x="530" y="420" as="sourcePoint"/>
                        <mxPoint x="580" y="370" as="targetPoint"/>
                    </mxGeometry>
                </mxCell>
                <mxCell id="21" value="" style="endArrow=none;html=1;exitX=1;exitY=0.3333333333333333;exitDx=0;exitDy=0;exitPerimeter=0;entryX=0;entryY=0.5;entryDx=0;entryDy=0;" parent="1" source="2" target="11" edge="1">
                    <mxGeometry width="50" height="50" relative="1" as="geometry">
                        <mxPoint x="530" y="420" as="sourcePoint"/>
                        <mxPoint x="580" y="370" as="targetPoint"/>
                    </mxGeometry>
                </mxCell>
                <mxCell id="22" value="" style="endArrow=none;html=1;exitX=1;exitY=0.5;exitDx=0;exitDy=0;entryX=0;entryY=0.3333333333333333;entryDx=0;entryDy=0;entryPerimeter=0;" parent="1" source="10" target="4" edge="1">
                    <mxGeometry width="50" height="50" relative="1" as="geometry">
                        <mxPoint x="530" y="420" as="sourcePoint"/>
                        <mxPoint x="580" y="370" as="targetPoint"/>
                    </mxGeometry>
                </mxCell>
                <mxCell id="23" value="" style="endArrow=none;html=1;exitX=1;exitY=1;exitDx=0;exitDy=0;exitPerimeter=0;entryX=0;entryY=0.5;entryDx=0;entryDy=0;" parent="1" source="2" target="10" edge="1">
                    <mxGeometry width="50" height="50" relative="1" as="geometry">
                        <mxPoint x="530" y="420" as="sourcePoint"/>
                        <mxPoint x="580" y="370" as="targetPoint"/>
                    </mxGeometry>
                </mxCell>
                <mxCell id="24" value="" style="endArrow=none;html=1;exitX=1;exitY=0.5;exitDx=0;exitDy=0;entryX=0;entryY=1;entryDx=0;entryDy=0;entryPerimeter=0;" parent="1" source="10" target="3" edge="1">
                    <mxGeometry width="50" height="50" relative="1" as="geometry">
                        <mxPoint x="530" y="420" as="sourcePoint"/>
                        <mxPoint x="580" y="370" as="targetPoint"/>
                    </mxGeometry>
                </mxCell>
                <mxCell id="27" value="" style="endArrow=none;html=1;exitX=1;exitY=0.5;exitDx=0;exitDy=0;entryX=0;entryY=1;entryDx=0;entryDy=0;entryPerimeter=0;" parent="1" source="26" target="4" edge="1">
                    <mxGeometry width="50" height="50" relative="1" as="geometry">
                        <mxPoint x="530" y="420" as="sourcePoint"/>
                        <mxPoint x="580" y="370" as="targetPoint"/>
                    </mxGeometry>
                </mxCell>
                <mxCell id="28" value="" style="endArrow=none;html=1;entryX=0;entryY=0.3333333333333333;entryDx=0;entryDy=0;entryPerimeter=0;exitX=1;exitY=1;exitDx=0;exitDy=0;" parent="1" source="12" target="4" edge="1">
                    <mxGeometry width="50" height="50" relative="1" as="geometry">
                        <mxPoint x="420" y="310" as="sourcePoint"/>
                        <mxPoint x="470" y="260" as="targetPoint"/>
                    </mxGeometry>
                </mxCell>
                <mxCell id="30" value="" style="endArrow=none;html=1;entryX=0;entryY=1;entryDx=0;entryDy=0;entryPerimeter=0;exitX=1;exitY=0.5;exitDx=0;exitDy=0;" parent="1" source="29" target="4" edge="1">
                    <mxGeometry width="50" height="50" relative="1" as="geometry">
                        <mxPoint x="420" y="510" as="sourcePoint"/>
                        <mxPoint x="470" y="460" as="targetPoint"/>
                    </mxGeometry>
                </mxCell>
                <mxCell id="32" value="" style="endArrow=none;html=1;entryX=0;entryY=1;entryDx=0;entryDy=0;entryPerimeter=0;exitX=1;exitY=0.5;exitDx=0;exitDy=0;" edge="1" parent="1" source="31" target="4">
                    <mxGeometry width="50" height="50" relative="1" as="geometry">
                        <mxPoint x="400" y="420" as="sourcePoint"/>
                        <mxPoint x="450" y="370" as="targetPoint"/>
                    </mxGeometry>
                </mxCell>
                <mxCell id="33" value="" style="endArrow=none;html=1;exitX=1;exitY=0.3333333333333333;exitDx=0;exitDy=0;exitPerimeter=0;entryX=0;entryY=0.5;entryDx=0;entryDy=0;" edge="1" parent="1" source="2" target="12">
                    <mxGeometry width="50" height="50" relative="1" as="geometry">
                        <mxPoint x="400" y="420" as="sourcePoint"/>
                        <mxPoint x="450" y="370" as="targetPoint"/>
                    </mxGeometry>
                </mxCell>
            </root>
        </mxGraphModel>
    </diagram>
</mxfile>